<svg xmlns="http://www.w3.org/2000/svg" xmlns:xlink="http://www.w3.org/1999/xlink" width="500" zoomAndPan="magnify" viewBox="0 0 375 374.999991" height="500" preserveAspectRatio="xMidYMid meet" version="1.0"><defs><g/></defs><g fill="#ffffff" fill-opacity="1"><g transform="translate(64.14055, 251.245515)"><g><path d="M 18.578125 -109.4375 C 14.191406 -120.101562 10.519531 -127.390625 7.5625 -131.296875 C 4.613281 -135.203125 1.617188 -137.820312 -1.421875 -139.15625 L -1.421875 -142.875 L 39.71875 -142.875 L 39.71875 -139.15625 C 35.53125 -137.820312 33.816406 -135.203125 34.578125 -131.296875 C 35.335938 -127.390625 38.003906 -120.101562 42.578125 -109.4375 L 80.015625 -20.859375 L 113.734375 -108.875 C 117.347656 -118.394531 118.820312 -125.582031 118.15625 -130.4375 C 117.488281 -135.300781 114.679688 -138.207031 109.734375 -139.15625 L 109.734375 -142.875 L 139.15625 -142.875 L 139.15625 -139.15625 C 135.15625 -137.820312 131.726562 -135.203125 128.875 -131.296875 C 126.019531 -127.390625 122.492188 -119.914062 118.296875 -108.875 L 76.296875 0 L 64.296875 0 Z M 18.578125 -109.4375 "/></g></g></g><g fill="#ffffff" fill-opacity="1"><g transform="translate(160.13198, 251.245515)"><g><path d="M 89.15625 0 L 89.15625 -3.71875 C 93.53125 -5.050781 94.8125 -7.382812 93 -10.71875 C 91.195312 -14.050781 87.054688 -20.578125 80.578125 -30.296875 L 57.71875 -64.859375 L 31.71875 -29.140625 C 27.144531 -23.046875 23.953125 -18.285156 22.140625 -14.859375 C 20.335938 -11.429688 20.382812 -8.953125 22.28125 -7.421875 C 24.1875 -5.898438 28.191406 -4.664062 34.296875 -3.71875 L 34.296875 0 L -2.578125 0 L -2.578125 -3.71875 C 1.234375 -5.050781 5.328125 -7.285156 9.703125 -10.421875 C 14.085938 -13.566406 19.710938 -19.804688 26.578125 -29.140625 L 55.4375 -68.578125 L 26.28125 -112.578125 C 19.8125 -122.296875 14.578125 -128.820312 10.578125 -132.15625 C 6.578125 -135.488281 2.671875 -137.820312 -1.140625 -139.15625 L -1.140625 -142.875 L 43.140625 -142.875 L 43.140625 -139.15625 C 38.765625 -137.820312 37.476562 -135.488281 39.28125 -132.15625 C 41.09375 -128.820312 45.238281 -122.296875 51.71875 -112.578125 L 71.15625 -82.875 L 92.578125 -113.15625 C 97.148438 -119.632812 100.242188 -124.585938 101.859375 -128.015625 C 103.484375 -131.441406 103.390625 -133.960938 101.578125 -135.578125 C 99.773438 -137.203125 95.726562 -138.394531 89.4375 -139.15625 L 89.4375 -142.875 L 126.015625 -142.875 L 126.015625 -139.15625 C 122.203125 -137.820312 118.148438 -135.535156 113.859375 -132.296875 C 109.578125 -129.054688 104.101562 -122.675781 97.4375 -113.15625 L 73.71875 -79.15625 L 105.734375 -30.296875 C 112.203125 -20.578125 117.484375 -14.050781 121.578125 -10.71875 C 125.679688 -7.382812 129.539062 -5.050781 133.15625 -3.71875 L 133.15625 0 Z M 89.15625 0 "/></g></g></g><path stroke-linecap="butt" transform="matrix(0.416185, 0.623931, -0.623931, 0.416185, 185.728015, 113.883156)" fill="none" stroke-linejoin="miter" d="M -0.000522755 1.999145 L 201.588248 1.998817 " stroke="#000000" stroke-width="4" stroke-opacity="1" stroke-miterlimit="4"/><path stroke-linecap="butt" transform="matrix(0.296996, 0.68869, -0.68869, 0.296996, 82.681801, 114.953078)" fill="none" stroke-linejoin="miter" d="M -0.0000988674 1.999572 L 174.101741 2.000331 " stroke="#000000" stroke-width="4" stroke-opacity="1" stroke-miterlimit="4"/><g fill="#ffffff" fill-opacity="1"><g transform="translate(144.923901, 276.467506)"><g><path d="M 1.234375 -10.125 C 0.984375 -10.78125 0.75 -11.226562 0.53125 -11.46875 C 0.3125 -11.707031 0.113281 -11.867188 -0.0625 -11.953125 L -0.0625 -12.171875 L 2.640625 -12.171875 L 2.640625 -11.953125 C 2.390625 -11.867188 2.28125 -11.707031 2.3125 -11.46875 C 2.351562 -11.226562 2.503906 -10.78125 2.765625 -10.125 L 6.125 -1.515625 L 9.421875 -10.109375 C 9.640625 -10.679688 9.734375 -11.113281 9.703125 -11.40625 C 9.671875 -11.707031 9.503906 -11.890625 9.203125 -11.953125 L 9.203125 -12.171875 L 11.140625 -12.171875 L 11.140625 -11.953125 C 10.910156 -11.867188 10.679688 -11.707031 10.453125 -11.46875 C 10.234375 -11.226562 9.992188 -10.78125 9.734375 -10.125 L 5.796875 0.09375 L 5.296875 0.09375 Z M 1.234375 -10.125 "/></g></g></g><g fill="#ffffff" fill-opacity="1"><g transform="translate(155.986476, 276.467506)"><g><path d="M 0.890625 0 L 0.890625 -0.21875 C 1.148438 -0.300781 1.328125 -0.472656 1.421875 -0.734375 C 1.523438 -1.003906 1.578125 -1.492188 1.578125 -2.203125 L 1.578125 -9.96875 C 1.578125 -10.6875 1.523438 -11.175781 1.421875 -11.4375 C 1.328125 -11.695312 1.148438 -11.867188 0.890625 -11.953125 L 0.890625 -12.171875 L 8.96875 -12.171875 L 9.171875 -9.90625 L 8.96875 -9.859375 C 8.664062 -10.628906 8.242188 -11.160156 7.703125 -11.453125 C 7.171875 -11.753906 6.457031 -11.90625 5.5625 -11.90625 L 3.015625 -11.90625 L 3.015625 -6.640625 L 5.234375 -6.640625 C 5.890625 -6.640625 6.398438 -6.679688 6.765625 -6.765625 C 7.140625 -6.859375 7.410156 -6.992188 7.578125 -7.171875 C 7.742188 -7.347656 7.863281 -7.566406 7.9375 -7.828125 L 8.140625 -7.828125 L 8.140625 -5.203125 L 7.9375 -5.203125 C 7.863281 -5.460938 7.742188 -5.679688 7.578125 -5.859375 C 7.410156 -6.035156 7.140625 -6.164062 6.765625 -6.25 C 6.398438 -6.332031 5.890625 -6.375 5.234375 -6.375 L 3.015625 -6.375 L 3.015625 -1.046875 C 3.015625 -0.523438 3.273438 -0.265625 3.796875 -0.265625 L 6.046875 -0.265625 C 6.878906 -0.265625 7.566406 -0.40625 8.109375 -0.6875 C 8.660156 -0.976562 9.09375 -1.53125 9.40625 -2.34375 L 9.59375 -2.3125 L 9.453125 0 Z M 0.890625 0 "/></g></g></g><g fill="#ffffff" fill-opacity="1"><g transform="translate(166.231536, 276.467506)"><g><path d="M 10.0625 0.140625 L 1.875 -10.515625 L 1.875 -2.90625 C 1.875 -2.238281 1.921875 -1.722656 2.015625 -1.359375 C 2.109375 -1.003906 2.242188 -0.742188 2.421875 -0.578125 C 2.609375 -0.410156 2.828125 -0.289062 3.078125 -0.21875 L 3.078125 0 L 0.90625 0 L 0.90625 -0.21875 C 1.164062 -0.300781 1.34375 -0.472656 1.4375 -0.734375 C 1.539062 -1.003906 1.59375 -1.492188 1.59375 -2.203125 L 1.59375 -9.96875 C 1.59375 -10.6875 1.53125 -11.175781 1.40625 -11.4375 C 1.28125 -11.695312 1.046875 -11.867188 0.703125 -11.953125 L 0.703125 -12.171875 L 2.40625 -12.171875 L 10 -2.328125 L 10 -9.265625 C 10 -9.929688 9.953125 -10.445312 9.859375 -10.8125 C 9.765625 -11.175781 9.628906 -11.4375 9.453125 -11.59375 C 9.285156 -11.757812 9.066406 -11.878906 8.796875 -11.953125 L 8.796875 -12.171875 L 10.984375 -12.171875 L 10.984375 -11.953125 C 10.722656 -11.867188 10.539062 -11.695312 10.4375 -11.4375 C 10.34375 -11.175781 10.296875 -10.6875 10.296875 -9.96875 L 10.296875 0.140625 Z M 10.0625 0.140625 "/></g></g></g><g fill="#ffffff" fill-opacity="1"><g transform="translate(177.920297, 276.467506)"><g><path d="M 0.890625 0 L 0.890625 -0.21875 C 1.148438 -0.300781 1.328125 -0.472656 1.421875 -0.734375 C 1.523438 -1.003906 1.578125 -1.492188 1.578125 -2.203125 L 1.578125 -9.96875 C 1.578125 -10.6875 1.523438 -11.175781 1.421875 -11.4375 C 1.328125 -11.695312 1.148438 -11.867188 0.890625 -11.953125 L 0.890625 -12.171875 L 5.046875 -12.171875 C 6.234375 -12.171875 7.25 -12 8.09375 -11.65625 C 8.945312 -11.3125 9.640625 -10.851562 10.171875 -10.28125 C 10.703125 -9.71875 11.09375 -9.09375 11.34375 -8.40625 C 11.59375 -7.71875 11.71875 -7.019531 11.71875 -6.3125 C 11.726562 -5.09375 11.472656 -4.007812 10.953125 -3.0625 C 10.441406 -2.113281 9.710938 -1.363281 8.765625 -0.8125 C 7.828125 -0.269531 6.71875 0 5.4375 0 Z M 3.015625 -1.53125 C 3.015625 -1.125 3.082031 -0.8125 3.21875 -0.59375 C 3.351562 -0.375 3.660156 -0.265625 4.140625 -0.265625 L 5.40625 -0.265625 C 6.925781 -0.265625 8.09375 -0.703125 8.90625 -1.578125 C 9.726562 -2.453125 10.140625 -3.800781 10.140625 -5.625 C 10.140625 -6.78125 9.910156 -7.832031 9.453125 -8.78125 C 9.003906 -9.726562 8.335938 -10.484375 7.453125 -11.046875 C 6.578125 -11.617188 5.488281 -11.90625 4.1875 -11.90625 L 3.015625 -11.90625 Z M 3.015625 -1.53125 "/></g></g></g><g fill="#ffffff" fill-opacity="1"><g transform="translate(190.530928, 276.467506)"><g><path d="M 0.890625 0 L 0.890625 -0.21875 C 1.148438 -0.300781 1.328125 -0.472656 1.421875 -0.734375 C 1.523438 -1.003906 1.578125 -1.492188 1.578125 -2.203125 L 1.578125 -9.96875 C 1.578125 -10.6875 1.523438 -11.175781 1.421875 -11.4375 C 1.328125 -11.695312 1.148438 -11.867188 0.890625 -11.953125 L 0.890625 -12.171875 L 3.703125 -12.171875 L 3.703125 -11.953125 C 3.429688 -11.867188 3.25 -11.695312 3.15625 -11.4375 C 3.0625 -11.175781 3.015625 -10.6875 3.015625 -9.96875 L 3.015625 -2.203125 C 3.015625 -1.492188 3.0625 -1.003906 3.15625 -0.734375 C 3.25 -0.472656 3.429688 -0.300781 3.703125 -0.21875 L 3.703125 0 Z M 0.890625 0 "/></g></g></g><g fill="#ffffff" fill-opacity="1"><g transform="translate(195.122944, 276.467506)"><g><path d="M 3.453125 0 L 3.453125 -0.21875 C 3.722656 -0.300781 3.90625 -0.472656 4 -0.734375 C 4.101562 -1.003906 4.15625 -1.492188 4.15625 -2.203125 L 4.15625 -11.890625 L 3.296875 -11.890625 C 2.523438 -11.890625 1.9375 -11.769531 1.53125 -11.53125 C 1.125 -11.289062 0.769531 -10.851562 0.46875 -10.21875 L 0.28125 -10.265625 L 0.375 -12.171875 L 9.34375 -12.171875 L 9.4375 -10.265625 L 9.25 -10.21875 C 8.957031 -10.851562 8.609375 -11.289062 8.203125 -11.53125 C 7.796875 -11.769531 7.203125 -11.890625 6.421875 -11.890625 L 5.59375 -11.890625 L 5.59375 -2.203125 C 5.59375 -1.492188 5.640625 -1.003906 5.734375 -0.734375 C 5.835938 -0.472656 6.023438 -0.300781 6.296875 -0.21875 L 6.296875 0 Z M 3.453125 0 "/></g></g></g><g fill="#ffffff" fill-opacity="1"><g transform="translate(204.863575, 276.467506)"><g><path d="M 9.734375 0.125 C 9.296875 0.125 8.945312 0.0195312 8.6875 -0.1875 C 8.4375 -0.40625 8.210938 -0.71875 8.015625 -1.125 C 7.828125 -1.539062 7.609375 -2.050781 7.359375 -2.65625 C 7.097656 -3.257812 6.878906 -3.785156 6.703125 -4.234375 C 6.535156 -4.691406 6.347656 -5.070312 6.140625 -5.375 C 5.941406 -5.675781 5.6875 -5.898438 5.375 -6.046875 C 5.0625 -6.203125 4.644531 -6.28125 4.125 -6.28125 L 3.015625 -6.28125 L 3.015625 -2.203125 C 3.015625 -1.492188 3.0625 -1.003906 3.15625 -0.734375 C 3.25 -0.472656 3.429688 -0.300781 3.703125 -0.21875 L 3.703125 0 L 0.890625 0 L 0.890625 -0.21875 C 1.148438 -0.300781 1.328125 -0.472656 1.421875 -0.734375 C 1.523438 -1.003906 1.578125 -1.492188 1.578125 -2.203125 L 1.578125 -9.96875 C 1.578125 -10.6875 1.523438 -11.175781 1.421875 -11.4375 C 1.328125 -11.695312 1.148438 -11.867188 0.890625 -11.953125 L 0.890625 -12.171875 L 4.3125 -12.171875 C 5.5 -12.171875 6.421875 -12.050781 7.078125 -11.8125 C 7.734375 -11.570312 8.195312 -11.25 8.46875 -10.84375 C 8.75 -10.445312 8.890625 -9.984375 8.890625 -9.453125 C 8.890625 -8.648438 8.597656 -7.957031 8.015625 -7.375 C 7.429688 -6.800781 6.570312 -6.453125 5.4375 -6.328125 C 5.976562 -6.253906 6.414062 -6.132812 6.75 -5.96875 C 7.082031 -5.800781 7.359375 -5.578125 7.578125 -5.296875 C 7.796875 -5.015625 7.992188 -4.671875 8.171875 -4.265625 C 8.347656 -3.859375 8.539062 -3.390625 8.75 -2.859375 C 9.03125 -2.160156 9.265625 -1.617188 9.453125 -1.234375 C 9.640625 -0.847656 9.8125 -0.578125 9.96875 -0.421875 C 10.132812 -0.265625 10.316406 -0.1875 10.515625 -0.1875 C 10.578125 -0.1875 10.628906 -0.1875 10.671875 -0.1875 C 10.710938 -0.1875 10.753906 -0.191406 10.796875 -0.203125 L 10.796875 0 C 10.671875 0.0390625 10.503906 0.0703125 10.296875 0.09375 C 10.097656 0.113281 9.910156 0.125 9.734375 0.125 Z M 3.015625 -6.53125 L 4.46875 -6.53125 C 5.46875 -6.53125 6.207031 -6.765625 6.6875 -7.234375 C 7.164062 -7.710938 7.40625 -8.320312 7.40625 -9.0625 C 7.40625 -9.582031 7.285156 -10.054688 7.046875 -10.484375 C 6.816406 -10.910156 6.4375 -11.253906 5.90625 -11.515625 C 5.375 -11.773438 4.679688 -11.90625 3.828125 -11.90625 C 3.703125 -11.90625 3.566406 -11.898438 3.421875 -11.890625 C 3.285156 -11.890625 3.148438 -11.882812 3.015625 -11.875 Z M 3.015625 -6.53125 "/></g></g></g><g fill="#ffffff" fill-opacity="1"><g transform="translate(215.508692, 276.467506)"><g><path d="M 0.890625 0 L 0.890625 -0.21875 C 1.148438 -0.300781 1.328125 -0.472656 1.421875 -0.734375 C 1.523438 -1.003906 1.578125 -1.492188 1.578125 -2.203125 L 1.578125 -9.96875 C 1.578125 -10.6875 1.523438 -11.175781 1.421875 -11.4375 C 1.328125 -11.695312 1.148438 -11.867188 0.890625 -11.953125 L 0.890625 -12.171875 L 3.703125 -12.171875 L 3.703125 -11.953125 C 3.429688 -11.867188 3.25 -11.695312 3.15625 -11.4375 C 3.0625 -11.175781 3.015625 -10.6875 3.015625 -9.96875 L 3.015625 -2.203125 C 3.015625 -1.492188 3.0625 -1.003906 3.15625 -0.734375 C 3.25 -0.472656 3.429688 -0.300781 3.703125 -0.21875 L 3.703125 0 Z M 0.890625 0 "/></g></g></g><g fill="#ffffff" fill-opacity="1"><g transform="translate(220.100708, 276.467506)"><g><path d="M 7.375 0 L 7.375 -0.21875 C 7.644531 -0.300781 7.734375 -0.445312 7.640625 -0.65625 C 7.546875 -0.875 7.3125 -1.285156 6.9375 -1.890625 L 4.578125 -5.796875 L 1.953125 -1.84375 C 1.609375 -1.332031 1.425781 -0.945312 1.40625 -0.6875 C 1.394531 -0.4375 1.5625 -0.28125 1.90625 -0.21875 L 1.90625 0 L -0.0625 0 L -0.0625 -0.21875 C 0.164062 -0.300781 0.40625 -0.441406 0.65625 -0.640625 C 0.90625 -0.847656 1.226562 -1.25 1.625 -1.84375 L 4.421875 -6.046875 L 1.859375 -10.28125 C 1.503906 -10.894531 1.210938 -11.304688 0.984375 -11.515625 C 0.753906 -11.722656 0.539062 -11.867188 0.34375 -11.953125 L 0.34375 -12.171875 L 3.046875 -12.171875 L 3.046875 -11.953125 C 2.773438 -11.867188 2.6875 -11.722656 2.78125 -11.515625 C 2.882812 -11.304688 3.125 -10.894531 3.5 -10.28125 L 5.421875 -7.0625 L 7.59375 -10.328125 C 7.9375 -10.835938 8.113281 -11.21875 8.125 -11.46875 C 8.144531 -11.726562 7.984375 -11.890625 7.640625 -11.953125 L 7.640625 -12.171875 L 9.640625 -12.171875 L 9.640625 -11.953125 C 9.390625 -11.867188 9.140625 -11.722656 8.890625 -11.515625 C 8.640625 -11.316406 8.320312 -10.921875 7.9375 -10.328125 L 5.59375 -6.796875 L 8.5625 -1.890625 C 8.925781 -1.285156 9.222656 -0.875 9.453125 -0.65625 C 9.679688 -0.445312 9.882812 -0.300781 10.0625 -0.21875 L 10.0625 0 Z M 7.375 0 "/></g></g></g></svg>